<svg width="960" height="229" viewBox="0 0 960 229" fill="none" xmlns="http://www.w3.org/2000/svg">
<path d="M39.4081 91.493L45.1063 68.5622L104.115 44.7078L172.199 82.6344L154.119 155.393L95.1102 179.247L73.6526 167.294C60.2793 137.692 52.7814 121.095 39.4081 91.493Z" stroke="url(#paint0_linear_58_2)" stroke-width="1.5" stroke-miterlimit="10"/>
<path d="M36.9424 86.2207L44.6098 63.0481L108.325 42.7591L177.033 86.6593L152.704 160.185C127.822 168.109 113.871 172.551 88.9893 180.474L67.3351 166.639C55.466 135.234 48.8115 117.626 36.9424 86.2207Z" stroke="url(#paint1_linear_58_2)" stroke-width="1.5" stroke-miterlimit="10"/>
<path d="M34.7404 80.6214L44.4934 57.3416C71.2033 50.9824 86.1784 47.417 112.888 41.0577L181.813 91.1461L150.867 165.012C124.157 171.371 109.182 174.937 82.4718 181.296L60.7495 165.51C50.5923 132.359 44.8976 113.772 34.7404 80.6214Z" stroke="url(#paint2_linear_58_2)" stroke-width="1.5" stroke-miterlimit="10"/>
<path d="M32.8394 74.7046L44.7901 51.4646L117.805 39.6362L186.502 96.1041L148.583 169.844L75.5677 181.672L53.917 163.876C45.6856 129.052 41.0707 109.528 32.8394 74.7046Z" stroke="url(#paint3_linear_58_2)" stroke-width="1.5" stroke-miterlimit="10"/>
<path d="M31.2776 68.483L45.5333 45.442L123.073 38.5278L191.063 101.54L145.83 174.649L68.2903 181.563L46.8624 161.704C40.7762 125.299 37.3639 104.888 31.2776 68.483Z" stroke="url(#paint4_linear_58_2)" stroke-width="1.5" stroke-miterlimit="10"/>
<path d="M30.0946 61.9722L46.756 39.3015L128.685 37.7667L195.452 107.459L142.586 179.392C110.59 179.992 92.6519 180.328 60.6565 180.927L39.6142 158.963C35.8965 121.086 33.8122 99.8493 30.0946 61.9722Z" stroke="url(#paint5_linear_58_2)" stroke-width="1.5" stroke-miterlimit="10"/>
<path d="M29.3304 55.1914L48.4909 33.0746C82.1321 34.7589 100.993 35.7032 134.635 37.3875L199.627 113.861L138.831 184.037L52.6873 179.724L32.2043 155.622C31.082 116.402 30.4527 94.4122 29.3304 55.1914Z" stroke="url(#paint6_linear_58_2)" stroke-width="1.5" stroke-miterlimit="10"/>
<path d="M29.0259 48.1629L50.7698 26.7955L140.91 37.4254L203.54 120.746L134.548 188.544L44.4074 177.914L24.6687 151.655C26.3703 111.239 27.3243 88.579 29.0259 48.1629Z" stroke="url(#paint7_linear_58_2)" stroke-width="1.5" stroke-miterlimit="10"/>
<path d="M29.2223 40.9129L53.6239 20.5018C90.2835 27.3023 110.837 31.1151 147.497 37.9157L207.144 128.107L129.718 192.871L35.8458 175.457L17.0472 147.032C21.8019 105.59 24.4676 82.355 29.2223 40.9129Z" stroke="url(#paint8_linear_58_2)" stroke-width="1.5" stroke-miterlimit="10"/>
<path d="M29.9609 33.4709L57.0831 14.2344C95.0787 23.8644 116.381 29.2635 154.377 38.8934L210.388 135.937L124.33 196.974C86.3343 187.344 65.0316 181.945 27.036 172.315L9.38354 141.73C17.4195 99.4523 21.925 75.7487 29.9609 33.4709Z" stroke="url(#paint9_linear_58_2)" stroke-width="1.5" stroke-miterlimit="10"/>
<path d="M31.2831 25.8705L61.1758 8.03778C100.367 20.6736 122.339 27.758 161.53 40.3938L213.219 144.223L118.37 200.805L18.016 168.449L1.72559 135.726C13.2685 92.825 19.7401 68.7719 31.2831 25.8705Z" stroke="url(#paint10_linear_58_2)" stroke-width="1.5" stroke-miterlimit="10"/>
<path d="M346.396 127.429L340.698 150.359C317.654 159.675 304.733 164.898 281.689 174.214L213.605 136.287L231.685 63.5285C254.73 54.2128 267.65 48.9898 290.694 39.6741L312.152 51.6272C325.525 81.2295 333.023 97.8263 346.396 127.429Z" stroke="url(#paint11_linear_58_2)" stroke-width="1.5" stroke-miterlimit="10"/>
<path d="M348.862 132.701L341.194 155.873C316.312 163.797 302.362 168.239 277.479 176.162L208.771 132.262L233.1 58.7362C257.982 50.8128 271.933 46.3705 296.815 38.4472L318.469 52.2829C330.338 83.688 336.993 101.296 348.862 132.701Z" stroke="url(#paint12_linear_58_2)" stroke-width="1.5" stroke-miterlimit="10"/>
<path d="M351.064 138.3L341.311 161.58L272.916 177.864L203.992 127.776L234.938 53.9095C261.647 47.5502 276.623 43.9849 303.332 37.6256L325.055 53.4116C335.212 86.5626 340.907 105.149 351.064 138.3Z" stroke="url(#paint13_linear_58_2)" stroke-width="1.5" stroke-miterlimit="10"/>
<path d="M352.965 144.217L341.014 167.457L267.999 179.285L199.302 122.817L237.221 49.0777C265.736 44.4584 281.722 41.8686 310.236 37.2493L331.887 55.0458C340.119 89.8693 344.734 109.393 352.965 144.217Z" stroke="url(#paint14_linear_58_2)" stroke-width="1.5" stroke-miterlimit="10"/>
<path d="M354.527 150.439L340.271 173.48C309.99 176.18 293.013 177.694 262.732 180.394L194.742 117.381L239.975 44.2728C270.256 41.5727 287.233 40.0588 317.514 37.3587L338.942 57.2179C345.028 93.6228 348.44 114.034 354.527 150.439Z" stroke="url(#paint15_linear_58_2)" stroke-width="1.5" stroke-miterlimit="10"/>
<path d="M355.71 156.949L339.048 179.62C307.053 180.219 289.114 180.556 257.119 181.155L190.352 111.463L243.218 39.5295C275.214 38.9301 293.152 38.594 325.148 37.9946L346.19 59.959C349.908 97.8361 351.992 119.072 355.71 156.949Z" stroke="url(#paint16_linear_58_2)" stroke-width="1.5" stroke-miterlimit="10"/>
<path d="M356.474 163.73L337.313 185.847L251.169 181.534L186.178 105.06L246.973 34.8845C280.614 36.5688 299.476 37.5132 333.117 39.1975L353.6 63.2991C354.722 102.52 355.351 124.509 356.474 163.73Z" stroke="url(#paint17_linear_58_2)" stroke-width="1.5" stroke-miterlimit="10"/>
<path d="M356.778 170.759L335.034 192.126C299.832 187.975 280.096 185.647 244.894 181.496L182.264 98.1759L251.257 30.3776C286.459 34.5288 306.195 36.8563 341.397 41.0075L361.135 67.2669C359.434 107.683 358.48 130.343 356.778 170.759Z" stroke="url(#paint18_linear_58_2)" stroke-width="1.5" stroke-miterlimit="10"/>
<path d="M356.582 178.009L332.18 198.42L238.308 181.006L178.66 90.8144L256.086 26.0507C292.745 32.8512 313.299 36.664 349.958 43.4646L368.757 71.8895C364.002 113.332 361.337 136.567 356.582 178.009Z" stroke="url(#paint19_linear_58_2)" stroke-width="1.5" stroke-miterlimit="10"/>
<path d="M355.843 185.451L328.721 204.687C290.725 195.057 269.423 189.658 231.427 180.028L175.417 82.9846L261.474 21.948L358.768 46.607L376.421 77.1915C368.385 119.469 363.879 143.173 355.843 185.451Z" stroke="url(#paint20_linear_58_2)" stroke-width="1.5" stroke-miterlimit="10"/>
<path d="M354.521 193.051L324.629 210.884C285.438 198.248 263.465 191.164 224.274 178.528L172.585 74.6989L267.434 18.1161C306.625 30.752 328.598 37.8363 367.788 50.4721L384.079 83.1951C372.536 126.097 366.064 150.15 354.521 193.051Z" stroke="url(#paint21_linear_58_2)" stroke-width="1.5" stroke-miterlimit="10"/>
<path opacity="0.8" d="M118.684 53.2262L149.456 100.382L175.441 83.4272L213.121 141.169L176.067 165.345L213.121 222.127" stroke="url(#paint22_linear_58_2)" stroke-width="1.25" stroke-linecap="round" stroke-linejoin="round"/>
<path d="M135.403 78.8468L191.469 42.2658L168.374 6.87329" stroke="url(#paint23_linear_58_2)" stroke-width="1.25" stroke-linecap="round" stroke-linejoin="round"/>
<path d="M189.701 104.557L236.71 73.8853L281.756 142.916" stroke="url(#paint24_linear_58_2)" stroke-width="1.25" stroke-linecap="round" stroke-linejoin="round"/>
<path d="M194.594 153.257L171.246 117.478L141.182 137.789L131.023 144.653" stroke="url(#paint25_linear_58_2)" stroke-width="1.25" stroke-linecap="round" stroke-linejoin="round"/>
<path d="M121.116 108.578L141.182 137.789" stroke="url(#paint26_linear_58_2)" stroke-width="1.25" stroke-linecap="round" stroke-linejoin="round"/>
<path d="M110.009 114.76L119.756 108.401" stroke="url(#paint27_linear_58_2)" stroke-width="1.25" stroke-linecap="round" stroke-linejoin="round"/>
<path d="M250.556 133.51L231.726 104.196L267.682 80.7358L277.387 95.9" stroke="url(#paint28_linear_58_2)" stroke-width="1.25" stroke-linecap="round" stroke-linejoin="round"/>
<path d="M168.374 13.6215C172.101 13.6215 175.122 10.6002 175.122 6.87326C175.122 3.1463 172.101 0.125 168.374 0.125C164.646 0.125 161.625 3.1463 161.625 6.87326C161.625 10.6002 164.646 13.6215 168.374 13.6215Z" fill="#7F1C1F"/>
<path d="M118.684 59.9745C122.411 59.9745 125.433 56.9532 125.433 53.2262C125.433 49.4993 122.411 46.478 118.684 46.478C114.957 46.478 111.935 49.4993 111.935 53.2262C111.935 56.9532 114.957 59.9745 118.684 59.9745Z" fill="#7F1C1F"/>
<path d="M252.315 142.916C256.042 142.916 259.064 139.895 259.064 136.168C259.064 132.441 256.042 129.42 252.315 129.42C248.588 129.42 245.566 132.441 245.566 136.168C245.566 139.895 248.588 142.916 252.315 142.916Z" fill="#7F1C1F"/>
<path d="M278.951 105.474C282.679 105.474 285.7 102.453 285.7 98.7257C285.7 94.9987 282.679 91.9774 278.951 91.9774C275.224 91.9774 272.203 94.9987 272.203 98.7257C272.203 102.453 275.224 105.474 278.951 105.474Z" fill="#7F1C1F"/>
<path d="M282.882 153.257C286.609 153.257 289.631 150.235 289.631 146.508C289.631 142.781 286.609 139.76 282.882 139.76C279.155 139.76 276.133 142.781 276.133 146.508C276.133 150.235 279.155 153.257 282.882 153.257Z" fill="#7F1C1F"/>
<path d="M106.575 123.818C110.302 123.818 113.324 120.797 113.324 117.07C113.324 113.343 110.302 110.322 106.575 110.322C102.848 110.322 99.8261 113.343 99.8261 117.07C99.8261 120.797 102.848 123.818 106.575 123.818Z" fill="#7F1C1F"/>
<path d="M125.433 154.472C129.16 154.472 132.182 151.451 132.182 147.724C132.182 143.997 129.16 140.976 125.433 140.976C121.706 140.976 118.684 143.997 118.684 147.724C118.684 151.451 121.706 154.472 125.433 154.472Z" fill="#7F1C1F"/>
<path d="M213.121 228.875C216.848 228.875 219.87 225.854 219.87 222.127C219.87 218.4 216.848 215.378 213.121 215.378C209.394 215.378 206.372 218.4 206.372 222.127C206.372 225.854 209.394 228.875 213.121 228.875Z" fill="#7F1C1F"/>
<path d="M522.626 111.829L521.729 116.308H522.626H489.139V142.119C489.139 143.544 489.6 144.518 490.523 145.05C491.445 145.586 493.298 146.136 496.065 146.706C496.847 146.847 497.241 147.345 497.241 148.197C497.241 148.766 497.167 149.41 497.025 150.117C495.18 149.975 493.045 149.852 490.627 149.745C488.209 149.637 486.044 149.585 484.124 149.585C482.13 149.585 480.032 149.637 477.83 149.745C475.628 149.852 473.418 149.975 471.216 150.117C471.074 149.41 471 148.766 471 148.197C471 147.345 471.357 146.847 472.071 146.706C474.772 146.207 476.617 145.675 477.614 145.106C478.611 144.537 479.11 143.544 479.11 142.119V87.941C479.11 87.2305 479.02 86.6428 478.842 86.1778C478.663 85.7166 478.328 85.3111 477.83 84.954C477.331 84.5969 476.64 84.2956 475.747 84.0464C474.861 83.7972 473.708 83.5331 472.28 83.2467C471.573 83.176 471.216 82.6069 471.216 81.5393C471.216 81.0446 471.29 80.4383 471.432 79.7278C473.21 79.8691 475.271 79.9956 477.614 80.0998C479.965 80.2076 482.093 80.2597 484.013 80.2597C486.007 80.2597 488.105 80.2076 490.307 80.0998C492.509 79.9956 494.682 79.8691 496.817 79.7278C496.958 80.4383 497.025 81.0446 497.025 81.5393C497.025 82.5362 496.676 83.1053 495.961 83.2467C493.186 83.6744 491.356 84.2064 490.471 84.8461C489.578 85.4859 489.139 86.5163 489.139 87.941V111.829H521.729C521.729 110.62 521.753 113.391 521.729 111.829C521.712 110.75 521.846 112.356 521.729 111.829C521.729 112.154 521.784 112.14 521.729 111.829C521.642 111.342 521.865 112.684 521.729 111.829" fill="#22447A"/>
<path d="M577.525 148.852C574.435 148.307 568.559 146.03 565.732 144.863C563.906 144.11 565.806 144.79 563.227 143.832C556.601 141.371 561.389 141.978 559.321 142.119M559.321 142.119V87.8331C559.321 86.4122 558.77 85.3781 557.662 84.7383C556.56 84.0985 554.589 83.6038 551.747 83.2467C551.032 83.1053 550.675 82.4655 550.675 81.3273C550.675 80.8288 550.75 80.2969 550.891 79.7278C552.885 79.8691 554.998 79.9956 557.237 80.0998C559.477 80.2076 561.59 80.2597 563.584 80.2597H578.62C586.306 80.2597 592.064 82.0749 595.903 85.698C599.742 89.3247 601.662 94.019 601.662 99.7772C601.662 102.054 601.149 104.364 600.114 106.711C599.088 109.058 597.592 111.175 595.635 113.057C593.679 114.943 591.261 116.486 588.381 117.695C585.502 118.904 582.251 119.507 578.62 119.507H569.342V141.371C569.342 143.008 569.97 144.397 571.382 145.358C572.696 146.252 574.393 148.424 577.525 148.852M574.997 115.136C579.974 115.136 583.813 114.035 586.514 111.829C589.215 109.627 590.569 105.892 590.569 100.633C590.569 98.427 590.323 96.3662 589.825 94.4468C589.326 92.5237 588.471 90.8387 587.265 89.3805C586.053 87.9224 584.453 86.7655 582.467 85.9137C580.473 85.0582 577.98 84.6341 574.997 84.6341H569.342V115.136L574.997 115.136Z" fill="#22447A"/>
<path d="M645.707 150.864C639.74 150.864 634.51 149.938 630.031 148.093C625.552 146.244 621.832 143.704 618.886 140.467C615.932 137.231 613.73 133.426 612.271 129.055C610.813 124.681 610.084 119.972 610.084 114.924C610.084 110.728 610.813 106.499 612.271 102.232C613.73 97.9657 615.932 94.1083 618.886 90.6601C621.832 87.2119 625.552 84.4035 630.031 82.2349C634.51 80.0663 639.74 78.9801 645.707 78.9801C648.058 78.9801 650.208 79.0322 652.165 79.14C654.114 79.2479 655.982 79.4265 657.76 79.6757C659.538 79.9249 661.279 80.2448 662.99 80.6354C664.694 81.026 666.472 81.4686 668.325 81.9671C668.392 83.8864 668.376 86.139 668.376 89.1697V97.8491C667.811 98.1355 668.942 97.8491 668.376 97.8491C667.804 97.8491 667.982 97.7871 667.521 97.6458C667.06 97.5044 666.755 97.1101 666.613 96.4703C665.334 91.7797 663.31 88.4394 660.535 86.4456C657.76 84.4556 653.742 83.4587 648.482 83.4587C644.07 83.4587 640.179 84.1729 636.801 85.5938C633.423 87.0147 630.581 89.0048 628.267 91.564C625.961 94.1269 624.22 97.2031 623.045 100.793C621.869 104.382 621.281 108.381 621.281 112.789C621.281 117.695 622.033 122.211 623.521 126.336C625.016 130.458 627.025 134.014 629.547 137.001C632.077 139.988 635.023 142.298 638.401 143.931C641.779 145.567 645.387 146.386 649.226 146.386C652.284 146.386 654.866 146.084 656.964 145.478C659.062 144.875 660.803 144.005 662.187 142.867C663.578 141.728 664.683 140.84 664.683 138.914V132.838C664.683 132.114 664.591 132.206 665.571 132.206H668.376V141.24C668.376 144.21 669.511 148.786 668.325 149.053C664.876 149.829 661.279 150.064 657.656 150.384C654.032 150.704 650.044 150.864 645.707 150.864Z" fill="#22447A"/>
<path d="M768.222 123.372C765.987 124.172 767.291 123.735 766.288 124.253C765.292 124.767 764.956 125.979 764.956 127.4V146.386C764.956 147.025 764.777 147.557 764.42 147.985C764.063 148.413 763.066 148.766 761.437 149.053C758.23 149.618 754.964 150.064 751.623 150.384C748.275 150.704 744.369 150.864 739.89 150.864C733.775 150.864 728.455 149.938 723.939 148.093C719.423 146.244 715.673 143.719 712.69 140.52C709.706 137.321 707.482 133.534 706.023 129.159C704.565 124.789 703.836 120.042 703.836 114.924C703.836 110.657 704.565 106.391 706.023 102.124C707.482 97.8578 709.684 94.019 712.637 90.6043C715.584 87.1933 719.304 84.4035 723.783 82.2349C728.262 80.0663 733.492 78.9801 739.459 78.9801C741.594 78.9801 743.64 79.0322 745.597 79.1401C747.546 79.2479 749.488 79.4451 751.408 79.7278C753.327 80.0105 755.261 80.349 757.218 80.7395C759.175 81.1338 761.288 81.6137 763.565 82.1791C763.574 84.7096 763.574 87.2717 763.574 90.1384V98.0541C763.334 98.1309 763.998 97.9872 763.574 98.0541C763.15 98.1285 763.182 98.1038 762.9 98.1038C761.761 98.1038 762.144 97.7165 761.861 96.7902C760.581 92.029 758.409 88.6142 755.351 86.5535C752.293 84.4928 747.926 83.4587 742.234 83.4587C737.681 83.4587 733.7 84.2063 730.285 85.698C726.878 87.1933 724.05 89.2392 721.811 91.8318C719.572 94.4282 717.883 97.523 716.744 101.113C715.606 104.702 715.033 108.597 715.033 112.789C715.033 117.695 715.762 122.211 717.221 126.336C718.679 130.458 720.673 134.014 723.195 137.001C725.717 139.988 728.708 142.298 732.153 143.931C735.605 145.567 739.355 146.386 743.41 146.386C745.47 146.386 747.546 146.244 749.644 145.958C751.742 145.675 753.506 145.318 754.927 144.89V128.575C754.927 126.656 754.354 125.321 753.223 124.573C752.085 123.829 750.165 123.279 747.464 122.921C746.891 122.851 746.504 122.602 746.289 122.174C746.073 121.75 745.969 121.322 745.969 120.894C745.969 120.325 746.036 119.76 746.185 119.187C748.245 119.332 750.515 119.455 753.007 119.563C755.492 119.67 757.665 119.722 759.517 119.722C761.362 119.722 763.475 119.67 765.863 119.563C768.244 119.455 766.444 119.592 768.222 119.447" fill="#22447A"/>
<path d="M816.471 150.864C814.901 150.864 813.539 150.634 812.386 150.172C811.233 149.707 810.258 149.086 809.47 148.305C808.673 147.524 808.063 146.635 807.632 145.638C807.2 144.645 806.91 143.611 806.761 142.547C804.983 145.746 802.87 147.933 800.415 149.105C797.967 150.276 795.14 150.864 791.941 150.864C790.512 150.864 789.009 150.738 787.41 150.492C785.803 150.243 784.292 149.726 782.871 148.945C781.45 148.164 780.275 147.063 779.352 145.638C778.43 144.217 777.968 142.331 777.968 139.988C777.968 137.358 778.586 135.133 779.836 133.322C781.078 131.507 782.678 130.015 784.635 128.84C786.591 127.668 788.719 126.727 791.033 126.013C793.34 125.306 795.564 124.699 797.699 124.201C798.905 123.989 800.028 123.758 801.062 123.509C802.089 123.26 802.997 122.992 803.778 122.709C804.775 122.423 805.392 122.032 805.645 121.534C805.891 121.039 806.017 120.08 806.017 118.655C806.017 115.315 805.378 112.558 804.098 110.39C802.818 108.221 800.542 107.139 797.275 107.139C796.063 107.139 795.036 107.28 794.18 107.563C793.325 107.849 792.618 108.292 792.045 108.898C791.48 109.501 790.981 110.3 790.55 111.297C790.125 112.294 789.701 113.466 789.27 114.816C789.062 115.597 788.578 116.166 787.834 116.524C787.082 116.881 785.825 117.305 784.047 117.803C783.623 117.944 783.087 118.086 782.447 118.227C781.807 118.372 780.477 118.227 780.141 117.967C779.377 117.377 779.439 117.584 779.776 116.204C780.148 114.682 780.386 113.075 781.592 111.509C782.804 109.947 784.345 108.56 786.234 107.351C788.117 106.142 790.163 105.163 792.365 104.416C794.567 103.672 796.665 103.296 798.659 103.296C801.144 103.296 803.391 103.512 805.392 103.936C807.394 104.364 809.112 105.149 810.548 106.283C811.992 107.421 813.085 108.95 813.844 110.869C814.603 112.789 814.975 115.277 814.975 118.335V136.681C814.975 139.169 815.065 140.962 815.243 142.067C815.422 143.168 815.689 144.038 816.047 144.678C816.538 145.675 817.096 146.334 817.698 146.653C818.301 146.973 818.449 146.374 818.394 146.963C818.326 147.689 818.394 147.156 818.394 146.963C818.394 146.613 818.394 150.309 818.394 150.757M806.017 125.908L802.588 126.44C800.728 126.797 798.92 127.225 797.164 127.72C795.415 128.218 793.86 128.914 792.499 129.799C791.137 130.692 790.051 131.812 789.225 133.162C788.399 134.512 787.99 136.182 787.99 138.172C787.99 140.877 788.69 142.937 790.081 144.358C791.48 145.783 793.213 146.493 795.289 146.493C796.65 146.493 797.99 146.188 799.314 145.586C800.638 144.983 801.777 144.128 802.744 143.027C803.711 141.926 804.5 140.627 805.11 139.132C805.712 137.64 806.017 136.004 806.017 134.226V125.908Z" fill="#22447A"/>
<path d="M873.432 114.068C873.714 113.856 874.354 113.179 875.359 112.041C876.356 110.907 877.658 109.698 879.265 108.418C880.864 107.139 882.724 105.963 884.83 104.896C886.935 103.832 889.197 103.296 891.622 103.296C895.908 103.296 898.943 104.561 900.722 107.083C902.507 109.608 903.4 113.109 903.4 117.587V143.507C903.4 144.57 904.04 145.37 905.32 145.906C906.599 146.438 908.02 146.847 909.583 147.133C910.223 147.275 914.067 147.529 914.067 148.239V150.527C912.214 150.386 906.666 149.852 904.888 149.745C903.102 149.637 901.168 149.585 899.085 149.585C897.21 149.585 895.313 149.637 893.386 149.745C891.459 149.852 889.606 149.975 887.828 150.116C887.687 149.41 887.612 148.837 887.612 148.413C887.612 147.702 887.932 147.275 888.572 147.133C889.212 147.063 889.874 146.918 890.544 146.705C891.221 146.493 891.846 146.244 892.411 145.958C892.984 145.675 893.46 145.337 893.855 144.946C894.241 144.555 894.442 144.076 894.442 143.507V121.534C894.442 117.126 893.907 114.158 892.843 112.629C891.771 111.1 890.03 110.338 887.612 110.338C885.767 110.338 884.004 110.639 882.337 111.241C880.663 111.848 879.19 112.737 877.91 113.908C876.631 115.084 875.597 116.523 874.815 118.227C874.034 119.934 873.64 121.891 873.64 124.093V143.507C873.64 144.57 874.243 145.37 875.455 145.906C876.661 146.438 878.015 146.847 879.51 147.133C880.15 147.275 880.47 147.702 880.47 148.413C880.47 148.837 880.395 149.41 880.254 150.116C878.402 149.975 876.609 149.852 874.868 149.745C873.127 149.637 871.296 149.585 869.377 149.585C867.457 149.585 865.553 149.637 863.67 149.745C861.781 149.852 859.921 149.975 858.068 150.116C857.927 149.41 857.86 148.837 857.86 148.413C857.86 147.702 858.179 147.275 858.819 147.133C860.099 146.918 861.394 146.546 862.711 146.01C864.027 145.478 864.682 144.645 864.682 143.507V121.534C864.682 117.126 864.169 114.158 863.142 112.629C862.115 111.1 860.404 110.338 858.001 110.338C856.156 110.338 854.407 110.639 852.741 111.241C851.082 111.848 849.594 112.737 848.292 113.908C846.975 115.084 845.933 116.523 845.159 118.227C844.378 119.934 843.991 121.891 843.991 124.093V143.507C843.991 144.57 844.609 145.37 845.859 145.906C847.101 146.438 848.433 146.847 849.854 147.133C850.494 147.275 850.814 147.702 850.814 148.413C850.814 148.837 850.747 149.41 850.606 150.116C848.753 149.975 846.938 149.852 845.152 149.745C843.366 149.637 841.469 149.585 839.46 149.585C837.37 149.585 835.398 149.637 833.546 149.745C831.693 149.852 832.971 149.741 831.193 149.883V146.692C832.612 146.142 831.834 146.438 833.114 145.906C834.394 145.37 835.034 144.537 835.034 143.399V114.388C835.034 112.257 834.654 110.728 833.91 109.802C833.166 108.879 823.366 110.587 823.366 108.094V105.503C824.289 105.503 830.108 105.163 831.775 105.055C833.449 104.951 834.818 104.829 835.897 104.684C837.548 104.401 839.021 104.096 840.316 103.776C841.611 103.456 842.541 103.296 843.121 103.296C844.125 103.296 844.631 103.832 844.631 104.896C844.631 105.892 844.527 107.083 844.311 108.47C844.096 109.858 843.991 111.688 843.991 113.964C844.2 113.749 844.802 113.075 845.799 111.937C846.789 110.799 848.083 109.59 849.676 108.31C851.268 107.031 853.091 105.874 855.151 104.843C857.205 103.813 859.474 103.296 861.952 103.296C865.634 103.296 868.38 104.241 870.188 106.123C871.996 108.009 873.074 110.657 873.432 114.068Z" fill="#22447A"/>
<path d="M954.6 140.649H959.068C958.138 141.928 957.08 143.257 955.875 144.466C954.662 145.675 953.226 146.758 951.552 147.717C949.878 148.677 947.981 149.443 945.845 150.012C943.71 150.578 941.262 150.864 938.487 150.864C935.645 150.864 932.937 150.403 930.378 149.477C927.818 148.554 925.564 147.133 923.607 145.21C921.65 143.291 920.088 140.91 918.912 138.065C917.744 135.223 917.157 131.879 917.157 128.04C917.157 124.413 917.849 121.073 919.232 118.015C920.624 114.957 922.417 112.346 924.619 110.178C926.821 108.009 929.262 106.32 931.925 105.111C934.596 103.902 937.17 103.296 939.663 103.296C946.269 103.296 951.091 105.215 954.111 109.058C957.132 112.897 958.642 117.907 958.642 124.093C958.642 124.521 958.434 124.733 958.002 124.733L927.178 126.12C927.178 128.895 927.573 131.455 928.346 133.802C929.128 136.145 930.229 138.172 931.642 139.88C933.063 141.587 934.782 142.919 936.806 143.878C938.822 144.838 941.106 145.318 943.658 145.318C945.927 145.318 948.107 144.786 950.198 143.719C952.288 142.651 953.187 142.282 954.6 140.649ZM938.219 107.139C934.678 107.139 931.918 108.522 929.939 111.297C927.96 114.068 926.97 117.695 926.97 122.174L947.028 121.214C948.085 121.214 948.621 120.753 948.621 119.83C948.621 118.48 948.405 117.055 947.981 115.564C947.557 114.068 946.924 112.7 946.069 111.457C945.22 110.215 944.142 109.181 942.832 108.362C941.523 107.548 939.99 107.139 938.219 107.139Z" fill="#22447A"/>
<path d="M507.845 156.622C507.574 155.826 538.891 135.954 563.039 145.789C567.494 147.604 571.695 150.425 579.197 150.953C592.9 151.916 603.5 144.232 603.633 144.513C603.758 144.778 594.747 152.378 581.162 154.239C567.147 156.158 562.029 150.083 546.887 148.574C524.196 146.313 508.04 157.197 507.845 156.622Z" fill="#22447A"/>
<path d="M521.467 100.432H520.315V102.902H521.467V100.432Z" fill="#22447A"/>
<path d="M521.491 120.926H520.339V123.396H521.491V120.926Z" fill="#22447A"/>
<path d="M532.206 100.432H531.054V102.902H532.206V100.432Z" fill="#22447A"/>
<path d="M532.206 108.463H531.054V110.934H532.206V108.463Z" fill="#22447A"/>
<path d="M532.123 120.926H530.97V123.396H532.123V120.926Z" fill="#22447A"/>
<path d="M534.999 144.673C531.407 146.45 527.814 148.228 524.222 150.005L534.999 144.673Z" fill="#22447A"/>
<path d="M521.491 150.803V86.076H531.092V145.771" fill="#22447A"/>
<path d="M521.524 86.076H520.318V87.8311H521.524V86.076Z" fill="#22447A"/>
<path d="M521.467 92.9105H520.261V94.6656H521.467V92.9105Z" fill="#22447A"/>
<path d="M532.233 86.076H531.027V87.8312H532.233V86.076Z" fill="#22447A"/>
<path d="M532.26 92.9105H531.054V94.6656H532.26V92.9105Z" fill="#22447A"/>
<path d="M520.924 86.1099C521.258 85.9378 521.412 85.8309 521.584 85.7276C521.971 85.4964 522.008 85.4529 522.165 85.3147C522.325 85.1743 522.383 85.1378 522.575 84.9018C522.717 84.7272 522.757 84.6713 523.089 84.29C523.243 84.114 523.519 83.7971 523.699 83.5712C523.981 83.2169 524.153 82.9119 524.499 82.3019C524.988 81.4377 524.905 81.5001 525.108 81.2007C525.337 80.8643 525.543 80.7472 525.565 80.4628C525.589 80.1646 525.477 79.8762 525.68 79.8626C525.851 79.8511 525.923 79.5308 525.992 79.4493C526.108 79.312 525.952 78.22 526.093 78.1027C526.285 77.9439 526.491 77.9768 526.612 78.1497C526.655 78.2108 526.627 79.3464 526.732 79.4076C526.835 79.4678 526.88 79.8511 527.032 79.8434C527.239 79.8331 527.152 80.1471 527.166 80.3902C527.18 80.6515 527.37 80.9505 527.566 81.239C527.901 81.7345 527.765 81.6455 528.118 82.2407C528.358 82.6455 528.609 82.9472 528.67 83.0207C528.972 83.3792 528.977 83.3952 529.149 83.641C529.425 84.037 529.423 84.0968 529.709 84.443C529.836 84.5973 529.936 84.6947 530.144 84.9088C530.266 85.0342 530.36 85.1354 530.747 85.4036C530.945 85.5412 531.371 85.8974 531.66 86.1099" fill="#22447A"/>
<path d="M521.467 108.243H520.315V110.714H521.467V108.243Z" fill="#22447A"/>
<defs>
<linearGradient id="paint0_linear_58_2" x1="95.0121" y1="127.907" x2="59.5424" y2="250.74" gradientUnits="userSpaceOnUse">
<stop stop-color="white" stop-opacity="0.8"/>
<stop offset="0.207837" stop-color="#0075BE" stop-opacity="0.43"/>
<stop offset="0.355903" stop-color="#D4DEF1" stop-opacity="0.78"/>
<stop offset="0.373202" stop-color="#C0CBE8" stop-opacity="0.827163"/>
<stop offset="0.654101" stop-color="#2A58A7" stop-opacity="0.9"/>
</linearGradient>
<linearGradient id="paint1_linear_58_2" x1="89.5388" y1="120.21" x2="43.2742" y2="243.984" gradientUnits="userSpaceOnUse">
<stop stop-color="white" stop-opacity="0.8"/>
<stop offset="0.207837" stop-color="#0075BE" stop-opacity="0.43"/>
<stop offset="0.355903" stop-color="#D4DEF1" stop-opacity="0.78"/>
<stop offset="0.373202" stop-color="#C0CBE8" stop-opacity="0.827163"/>
<stop offset="0.654101" stop-color="#2A58A7" stop-opacity="0.9"/>
</linearGradient>
<linearGradient id="paint2_linear_58_2" x1="96.2363" y1="115.367" x2="38.5671" y2="239.331" gradientUnits="userSpaceOnUse">
<stop stop-color="white" stop-opacity="0.8"/>
<stop offset="0.207837" stop-color="#0075BE" stop-opacity="0.43"/>
<stop offset="0.355903" stop-color="#D4DEF1" stop-opacity="0.78"/>
<stop offset="0.373202" stop-color="#C0CBE8" stop-opacity="0.827163"/>
<stop offset="0.654101" stop-color="#2A58A7" stop-opacity="0.9"/>
</linearGradient>
<linearGradient id="paint3_linear_58_2" x1="103.581" y1="110.038" x2="33.9219" y2="233.378" gradientUnits="userSpaceOnUse">
<stop stop-color="white" stop-opacity="0.8"/>
<stop offset="0.207837" stop-color="#0075BE" stop-opacity="0.43"/>
<stop offset="0.355903" stop-color="#D4DEF1" stop-opacity="0.78"/>
<stop offset="0.373202" stop-color="#C0CBE8" stop-opacity="0.827163"/>
<stop offset="0.654101" stop-color="#2A58A7" stop-opacity="0.9"/>
</linearGradient>
<linearGradient id="paint4_linear_58_2" x1="103.357" y1="98.6698" x2="21.1539" y2="220.507" gradientUnits="userSpaceOnUse">
<stop stop-color="white" stop-opacity="0.8"/>
<stop offset="0.207837" stop-color="#0075BE" stop-opacity="0.43"/>
<stop offset="0.355903" stop-color="#D4DEF1" stop-opacity="0.78"/>
<stop offset="0.373202" stop-color="#C0CBE8" stop-opacity="0.827163"/>
<stop offset="0.654101" stop-color="#2A58A7" stop-opacity="0.9"/>
</linearGradient>
<linearGradient id="paint5_linear_58_2" x1="110.195" y1="89.8937" x2="14.9296" y2="209.282" gradientUnits="userSpaceOnUse">
<stop stop-color="white" stop-opacity="0.8"/>
<stop offset="0.207837" stop-color="#0075BE" stop-opacity="0.43"/>
<stop offset="0.355903" stop-color="#D4DEF1" stop-opacity="0.78"/>
<stop offset="0.373202" stop-color="#C0CBE8" stop-opacity="0.827163"/>
<stop offset="0.654101" stop-color="#2A58A7" stop-opacity="0.9"/>
</linearGradient>
<linearGradient id="paint6_linear_58_2" x1="119.178" y1="81.3716" x2="10.3753" y2="197.303" gradientUnits="userSpaceOnUse">
<stop stop-color="white" stop-opacity="0.8"/>
<stop offset="0.207837" stop-color="#0075BE" stop-opacity="0.43"/>
<stop offset="0.355903" stop-color="#D4DEF1" stop-opacity="0.78"/>
<stop offset="0.373202" stop-color="#C0CBE8" stop-opacity="0.827163"/>
<stop offset="0.654101" stop-color="#2A58A7" stop-opacity="0.9"/>
</linearGradient>
<linearGradient id="paint7_linear_58_2" x1="130.224" y1="73.5854" x2="7.46094" y2="184.987" gradientUnits="userSpaceOnUse">
<stop stop-color="white" stop-opacity="0.8"/>
<stop offset="0.207837" stop-color="#0075BE" stop-opacity="0.43"/>
<stop offset="0.355903" stop-color="#D4DEF1" stop-opacity="0.78"/>
<stop offset="0.373202" stop-color="#C0CBE8" stop-opacity="0.827163"/>
<stop offset="0.654101" stop-color="#2A58A7" stop-opacity="0.9"/>
</linearGradient>
<linearGradient id="paint8_linear_58_2" x1="143.126" y1="67.0049" x2="6.03486" y2="172.745" gradientUnits="userSpaceOnUse">
<stop stop-color="white" stop-opacity="0.8"/>
<stop offset="0.207837" stop-color="#0075BE" stop-opacity="0.43"/>
<stop offset="0.355903" stop-color="#D4DEF1" stop-opacity="0.78"/>
<stop offset="0.373202" stop-color="#C0CBE8" stop-opacity="0.827163"/>
<stop offset="0.654101" stop-color="#2A58A7" stop-opacity="0.9"/>
</linearGradient>
<linearGradient id="paint9_linear_58_2" x1="157.551" y1="62.0433" x2="5.83111" y2="160.929" gradientUnits="userSpaceOnUse">
<stop stop-color="white" stop-opacity="0.8"/>
<stop offset="0.207837" stop-color="#0075BE" stop-opacity="0.43"/>
<stop offset="0.355903" stop-color="#D4DEF1" stop-opacity="0.78"/>
<stop offset="0.373202" stop-color="#C0CBE8" stop-opacity="0.827163"/>
<stop offset="0.654101" stop-color="#2A58A7" stop-opacity="0.9"/>
</linearGradient>
<linearGradient id="paint10_linear_58_2" x1="173.065" y1="59.0341" x2="6.48667" y2="149.819" gradientUnits="userSpaceOnUse">
<stop stop-color="white" stop-opacity="0.8"/>
<stop offset="0.207837" stop-color="#0075BE" stop-opacity="0.43"/>
<stop offset="0.355903" stop-color="#D4DEF1" stop-opacity="0.78"/>
<stop offset="0.373202" stop-color="#C0CBE8" stop-opacity="0.827163"/>
<stop offset="0.654101" stop-color="#2A58A7" stop-opacity="0.9"/>
</linearGradient>
<linearGradient id="paint11_linear_58_2" x1="285.54" y1="109.202" x2="321.009" y2="-13.6313" gradientUnits="userSpaceOnUse">
<stop stop-color="#7F1C1F" stop-opacity="0.03"/>
<stop offset="0.009611" stop-color="white"/>
<stop offset="0.379299" stop-color="#7F1C1F" stop-opacity="0.4"/>
<stop offset="0.495308" stop-color="#7F1C1F" stop-opacity="0.9"/>
</linearGradient>
<linearGradient id="paint12_linear_58_2" x1="288.647" y1="115.359" x2="334.911" y2="-8.41434" gradientUnits="userSpaceOnUse">
<stop stop-color="#7F1C1F" stop-opacity="0.03"/>
<stop offset="0.009611" stop-color="white"/>
<stop offset="0.379299" stop-color="#7F1C1F" stop-opacity="0.4"/>
<stop offset="0.495308" stop-color="#7F1C1F" stop-opacity="0.9"/>
</linearGradient>
<linearGradient id="paint13_linear_58_2" x1="282.383" y1="119.254" x2="340.053" y2="-4.71037" gradientUnits="userSpaceOnUse">
<stop stop-color="#7F1C1F" stop-opacity="0.03"/>
<stop offset="0.009611" stop-color="white"/>
<stop offset="0.379299" stop-color="#7F1C1F" stop-opacity="0.4"/>
<stop offset="0.495308" stop-color="#7F1C1F" stop-opacity="0.9"/>
</linearGradient>
<linearGradient id="paint14_linear_58_2" x1="275.567" y1="123.43" x2="345.226" y2="0.0891812" gradientUnits="userSpaceOnUse">
<stop stop-color="#7F1C1F" stop-opacity="0.03"/>
<stop offset="0.009611" stop-color="white"/>
<stop offset="0.379299" stop-color="#7F1C1F" stop-opacity="0.4"/>
<stop offset="0.495308" stop-color="#7F1C1F" stop-opacity="0.9"/>
</linearGradient>
<linearGradient id="paint15_linear_58_2" x1="274.45" y1="132.103" x2="356.653" y2="10.2657" gradientUnits="userSpaceOnUse">
<stop stop-color="#7F1C1F" stop-opacity="0.03"/>
<stop offset="0.009611" stop-color="white"/>
<stop offset="0.379299" stop-color="#7F1C1F" stop-opacity="0.4"/>
<stop offset="0.495308" stop-color="#7F1C1F" stop-opacity="0.9"/>
</linearGradient>
<linearGradient id="paint16_linear_58_2" x1="267.897" y1="138.691" x2="363.163" y2="19.302" gradientUnits="userSpaceOnUse">
<stop stop-color="#7F1C1F" stop-opacity="0.03"/>
<stop offset="0.009611" stop-color="white"/>
<stop offset="0.379299" stop-color="#7F1C1F" stop-opacity="0.4"/>
<stop offset="0.495308" stop-color="#7F1C1F" stop-opacity="0.9"/>
</linearGradient>
<linearGradient id="paint17_linear_58_2" x1="259.664" y1="144.968" x2="368.466" y2="29.0367" gradientUnits="userSpaceOnUse">
<stop stop-color="#7F1C1F" stop-opacity="0.03"/>
<stop offset="0.009611" stop-color="white"/>
<stop offset="0.379299" stop-color="#7F1C1F" stop-opacity="0.4"/>
<stop offset="0.495308" stop-color="#7F1C1F" stop-opacity="0.9"/>
</linearGradient>
<linearGradient id="paint18_linear_58_2" x1="249.819" y1="150.563" x2="372.582" y2="39.1611" gradientUnits="userSpaceOnUse">
<stop stop-color="#7F1C1F" stop-opacity="0.03"/>
<stop offset="0.009611" stop-color="white"/>
<stop offset="0.379299" stop-color="#7F1C1F" stop-opacity="0.4"/>
<stop offset="0.495308" stop-color="#7F1C1F" stop-opacity="0.9"/>
</linearGradient>
<linearGradient id="paint19_linear_58_2" x1="238.531" y1="155.115" x2="375.622" y2="49.3757" gradientUnits="userSpaceOnUse">
<stop stop-color="#7F1C1F" stop-opacity="0.03"/>
<stop offset="0.009611" stop-color="white"/>
<stop offset="0.379299" stop-color="#7F1C1F" stop-opacity="0.4"/>
<stop offset="0.495308" stop-color="#7F1C1F" stop-opacity="0.9"/>
</linearGradient>
<linearGradient id="paint20_linear_58_2" x1="226.058" y1="158.309" x2="377.778" y2="59.4225" gradientUnits="userSpaceOnUse">
<stop stop-color="#7F1C1F" stop-opacity="0.03"/>
<stop offset="0.009611" stop-color="white"/>
<stop offset="0.379299" stop-color="#7F1C1F" stop-opacity="0.4"/>
<stop offset="0.495308" stop-color="#7F1C1F" stop-opacity="0.9"/>
</linearGradient>
<linearGradient id="paint21_linear_58_2" x1="212.739" y1="159.888" x2="379.318" y2="69.1021" gradientUnits="userSpaceOnUse">
<stop stop-color="#7F1C1F" stop-opacity="0.03"/>
<stop offset="0.009611" stop-color="white"/>
<stop offset="0.379299" stop-color="#7F1C1F" stop-opacity="0.4"/>
<stop offset="0.495308" stop-color="#7F1C1F" stop-opacity="0.9"/>
</linearGradient>
<linearGradient id="paint22_linear_58_2" x1="157.876" y1="142.913" x2="199.913" y2="115.482" gradientUnits="userSpaceOnUse">
<stop stop-color="#172A88" stop-opacity="0.9"/>
<stop offset="1" stop-color="#7F1C1F" stop-opacity="0.9"/>
</linearGradient>
<linearGradient id="paint23_linear_58_2" x1="121.363" y1="62.7768" x2="182.411" y2="22.9392" gradientUnits="userSpaceOnUse">
<stop stop-color="#172A88" stop-opacity="0.9"/>
<stop offset="1" stop-color="#7F1C1F" stop-opacity="0.9"/>
</linearGradient>
<linearGradient id="paint24_linear_58_2" x1="209.732" y1="140.698" x2="261.723" y2="106.771" gradientUnits="userSpaceOnUse">
<stop stop-color="#172A88" stop-opacity="0.9"/>
<stop offset="1" stop-color="#7F1C1F" stop-opacity="0.9"/>
</linearGradient>
<linearGradient id="paint25_linear_58_2" x1="139.778" y1="163.516" x2="185.411" y2="133.738" gradientUnits="userSpaceOnUse">
<stop stop-color="#172A88" stop-opacity="0.9"/>
<stop offset="1" stop-color="#7F1C1F" stop-opacity="0.9"/>
</linearGradient>
<linearGradient id="paint26_linear_58_2" x1="128.304" y1="125.04" x2="133.994" y2="121.327" gradientUnits="userSpaceOnUse">
<stop stop-color="#172A88" stop-opacity="0.9"/>
<stop offset="1" stop-color="#7F1C1F" stop-opacity="0.9"/>
</linearGradient>
<linearGradient id="paint27_linear_58_2" x1="107.517" y1="116.386" x2="122.247" y2="106.774" gradientUnits="userSpaceOnUse">
<stop stop-color="#172A88" stop-opacity="0.9"/>
<stop offset="1" stop-color="#7F1C1F" stop-opacity="0.9"/>
</linearGradient>
<linearGradient id="paint28_linear_58_2" x1="238.544" y1="120.548" x2="279.693" y2="93.6955" gradientUnits="userSpaceOnUse">
<stop stop-color="#172A88" stop-opacity="0.9"/>
<stop offset="1" stop-color="#7F1C1F" stop-opacity="0.9"/>
</linearGradient>
</defs>
</svg>
